HIERARCHY
ROOT Hips
{
  OFFSET 0 0 0
  CHANNELS 6 Xposition Yposition Zposition Zrotation Yrotation Xrotation
  JOINT LeftThigh
  {
    OFFSET 8.409438 0 -5.917753
    CHANNELS 3 Zrotation Yrotation Xrotation
    JOINT LeftLeg
    {
      OFFSET 0 0 -42.358652
      CHANNELS 3 Zrotation Yrotation Xrotation
      JOINT LeftFoot
      {
        OFFSET 0 0 -39.357303
        CHANNELS 3 Zrotation Yrotation Xrotation
      }
    }
  }
  JOINT RightThigh
  {
    OFFSET -8.409438 0 -5.917753
    CHANNELS 3 Zrotation Yrotation Xrotation
    JOINT RightLeg
    {
      OFFSET 0 0 -42.358652
      CHANNELS 3 Zrotation Yrotation Xrotation
      JOINT RightFoot
      {
        OFFSET 0 0 -39.357303
        CHANNELS 3 Zrotation Yrotation Xrotation
      }
    }
  }
  JOINT SpineLow
  {
    OFFSET 0 0 4.719101
    CHANNELS 3 Zrotation Yrotation Xrotation
    JOINT SpineMid
    {
      OFFSET 0 0 12.899191
      CHANNELS 3 Zrotation Yrotation Xrotation
      JOINT Chest
      {
        OFFSET 0 0 12.899191
        CHANNELS 3 Zrotation Yrotation Xrotation
        JOINT LeftShoulder
        {
          OFFSET 7.550562 1.41573 9.438202
          CHANNELS 3 Zrotation Yrotation Xrotation
          JOINT LeftArm
          {
            OFFSET 9.155056 0 4.247191
            CHANNELS 3 Zrotation Yrotation Xrotation
            JOINT LeftForearm
            {
              OFFSET 0 0 25.771955
              CHANNELS 3 Zrotation Yrotation Xrotation
              JOINT LeftHand
              {
                OFFSET 0 0 25.197169
                CHANNELS 3 Zrotation Yrotation Xrotation
              }
            }
          }
        }
        JOINT RightShoulder
        {
          OFFSET -7.550562 1.41573 9.438202
          CHANNELS 3 Zrotation Yrotation Xrotation
          JOINT RightArm
          {
            OFFSET -9.155056 0 4.247191
            CHANNELS 3 Zrotation Yrotation Xrotation
            JOINT RightForearm
            {
              OFFSET 0 0 -25.771955
              CHANNELS 3 Zrotation Yrotation Xrotation
              JOINT RightHand
              {
                OFFSET 0 0 -25.197169
                CHANNELS 3 Zrotation Yrotation Xrotation
              }
            }
          }
        }
        JOINT Neck
        {
          OFFSET 0 0 15.101124
          CHANNELS 3 Zrotation Yrotation Xrotation
          JOINT Head
          {
            OFFSET 0 0 11.325843
            CHANNELS 3 Zrotation Yrotation Xrotation
            End Site
            {
              OFFSET 0 0 14.157303
            }
          }
        }
      }
    }
  }
}
MOTION
Frames: 13
Frame Time: 0.0
0.0  89.887642  0.0  10.453234  -54.120217  -113.016353  28.447103  -47.930029  -12.741267  17.273922  31.997653  69.300132  4.139298  8.26151  3.150121  -8.388137  16.574605  -18.44579  28.821371  4.006292  53.384337  -2.590265  0.311603  1.977336  2.669056  0.559241  2.121679  7.339064  1.291279  5.853655  7.339064  1.291279  5.853655  -17.757724  16.26828  2.978914  -111.214949  52.263154  -95.055034  -38.799491  -7.098963  72.976246  75.827333  -4.692287  10.19245  -8.448438  -2.132456  18.75354  157.637697  30.703279  60.522532  -33.235044  -12.60426  -68.917913  96.77586  1.320637  -27.176129  -12.417681  -0.038677  5.105605  -9.313711  -0.132851  3.830295  
0.0  89.887642  0.0  10.559282  -53.880546  -113.140752  27.6556  -47.98354  -12.062447  18.087611  31.552591  69.117948  4.249752  8.31066  3.228527  -9.123325  16.475077  -18.362972  29.367743  4.326691  53.10761  -2.600062  0.325519  1.971479  2.663057  0.572857  2.109047  7.323703  1.330349  5.82061  7.323703  1.330349  5.82061  -17.676259  16.338891  3.252797  -111.274748  52.313061  -95.003505  -38.680042  -7.377074  72.845229  76.008914  -4.442605  10.466765  -8.512407  -2.287636  18.483227  158.543287  30.204031  60.603141  -33.180006  -12.941913  -68.12789  96.284315  1.717244  -27.001672  -12.583882  0.040831  5.036638  -9.439011  -0.073156  3.780221  
0.0  89.887642  0.0  10.656096  -53.604841  -113.24347  27.295785  -47.986388  -11.694582  18.579992  31.186265  68.82329  4.461946  8.410871  3.391634  -9.913075  16.422433  -18.242988  29.732287  4.652288  52.76273  -2.501578  0.397193  1.92111  2.64973  0.580019  2.096984  7.287741  1.352395  5.788249  7.287741  1.352395  5.788249  -17.547306  16.405332  3.57087  -111.406137  52.395432  -94.953391  -38.581764  -7.498615  72.696613  76.325837  -4.062471  10.515807  -8.733204  -2.447098  18.208958  159.43249  29.575345  60.588696  -32.981268  -13.282727  -67.291967  95.691574  2.349735  -26.904656  -12.751717  0.130744  4.908218  -9.565567  -0.004384  3.685795  
0.0  89.887642  0.0  10.65411  -53.299485  -113.317369  27.36301  -47.989921  -11.657826  18.888587  30.749597  68.696161  4.52158  8.448213  3.475589  -10.317169  16.477474  -17.971536  29.882592  4.904362  52.380785  -2.447499  0.435095  1.889215  2.649989  0.583635  2.098143  7.288797  1.362106  5.791825  7.288797  1.362106  5.791825  -17.566377  16.367585  3.885983  -111.623814  52.535141  -94.978115  -38.577013  -7.663488  72.426331  76.514383  -3.666081  10.405558  -8.748675  -2.491842  18.043369  159.82228  29.241634  60.659723  -32.556522  -13.638427  -66.649479  94.953197  3.141857  -26.85246  -12.982966  0.177423  4.78008  -9.739314  0.03151  3.590751  
0.0  89.887642  0.0  10.686504  -53.035653  -113.366656  27.955857  -47.89966  -12.003161  18.70799  30.433592  68.391038  4.846901  8.387677  3.732678  -10.438219  16.58141  -17.658759  29.736628  5.183694  51.962489  -2.253974  0.628015  1.815467  2.670978  0.598488  2.111128  7.347712  1.399313  5.829338  7.347712  1.399313  5.829337  -17.644952  16.132345  4.15082  -112.070022  52.707041  -95.155955  -38.706712  -7.67859  72.129049  76.741275  -3.239036  10.126796  -9.628753  -2.809388  17.585607  160.619319  28.423164  60.586145  -31.854291  -13.758799  -66.224664  93.94651  3.914172  -26.758313  -13.250606  0.155905  4.59115  -9.939787  0.017367  3.448665  
0.0  89.887642  0.0  10.6125  -52.77474  -113.332558  28.84779  -47.778862  -12.593061  18.385966  30.117753  68.223055  4.921457  8.402855  3.812011  -10.090147  16.695703  -17.209915  29.26582  5.468132  51.568197  -2.257727  0.664212  1.803093  2.722049  0.630638  2.149435  7.490893  1.478091  5.938569  7.490893  1.478091  5.938569  -18.023691  15.645302  4.201962  -112.521845  52.957977  -95.435367  -38.904803  -7.627186  71.778043  76.907535  -2.899713  9.883448  -9.757411  -3.064107  17.156781  160.501857  28.160866  60.506116  -31.158335  -13.759421  -65.883807  92.994525  4.541907  -26.732645  -13.600997  -0.011707  4.368453  -10.201285  -0.106098  3.278006  
0.0  89.887642  0.0  10.563433  -52.529214  -113.209015  29.840833  -47.533676  -13.37222  17.848777  29.807742  67.975829  5.038363  8.521527  3.942866  -9.167744  16.872674  -16.682904  28.34768  5.779582  51.152596  -2.284733  0.682066  1.800941  2.7822  0.668983  2.1832  7.659467  1.573271  6.036456  7.659468  1.573271  6.036456  -18.435312  15.038019  4.180966  -113.012841  53.171113  -95.757076  -39.084691  -7.473508  71.396434  77.045173  -2.637616  9.81559  -10.191032  -3.456583  16.698548  160.600285  27.697018  60.45535  -30.598515  -13.605938  -65.696257  92.272736  4.67965  -26.706579  -13.982677  -0.21317  4.129761  -10.486127  -0.254566  3.094361  
0.0  89.887642  0.0  10.420332  -52.168231  -112.993653  30.585948  -47.24064  -14.06347  17.457215  29.567131  67.853707  5.0713  8.507981  3.958718  -8.672213  16.995221  -16.229072  27.683749  5.981579  50.689127  -2.335114  0.706509  1.799343  2.836173  0.704934  2.217752  7.811066  1.66222  6.136239  7.811067  1.66222  6.136239  -18.959485  14.403224  4.125573  -113.262863  53.398443  -95.903241  -39.213757  -7.244387  70.976264  77.147211  -2.422671  10.038623  -10.269924  -3.70402  16.407415  160.440517  27.561949  60.427519  -30.26167  -13.533843  -65.269205  91.946366  4.732202  -26.439966  -14.413089  -0.425697  3.933295  -10.807563  -0.412357  2.941857  
0.0  89.887642  0.0  10.306591  -51.801328  -112.713693  31.072395  -46.886201  -14.769908  17.183957  29.356034  67.755813  5.170416  8.564182  4.022652  -8.305614  17.147829  -15.863016  27.569674  6.030007  50.107539  -2.431359  0.713409  1.79113  2.878589  0.731933  2.244508  7.930145  1.728631  6.213528  7.930145  1.728631  6.213528  -19.406088  13.815772  4.038033  -113.274779  53.596468  -95.775869  -39.247855  -7.037764  70.481358  77.23152  -2.231688  10.569604  -10.411526  -3.890768  16.196831  160.645693  27.307528  60.492315  -30.346017  -13.247226  -64.874437  91.627146  4.590062  -26.032228  -14.839269  -0.596175  3.737894  -11.126204  -0.538323  2.790868  
0.0  89.887642  0.0  10.080295  -51.313842  -112.390008  31.207568  -46.608167  -15.25392  17.053835  29.256986  67.639435  5.266807  8.580651  4.038041  -8.37391  17.310462  -15.537135  27.259731  6.026996  49.495077  -2.554907  0.74219  1.788346  2.916535  0.739112  2.268442  8.035039  1.741683  6.280621  8.035038  1.741683  6.28062  -19.919826  13.336204  3.966429  -112.963611  53.830463  -95.26066  -39.149914  -6.928746  69.905865  77.279414  -2.046538  11.366947  -10.410958  -3.947342  16.183611  160.765425  27.056512  60.58086  -30.81858  -13.088575  -64.501899  91.565588  4.457103  -25.336196  -15.305918  -0.711564  3.612731  -11.475567  -0.624675  2.693691  
0.0  89.887642  0.0  9.861377  -50.72285  -112.051334  31.010562  -46.372524  -15.632887  17.513585  29.046987  67.967614  5.08446  8.40308  3.858082  -8.463818  17.60355  -15.241236  26.850307  6.005428  48.837994  -2.573192  0.818632  1.778408  2.921951  0.730294  2.291058  8.049472  1.714361  6.341368  8.049471  1.714361  6.341368  -20.277319  13.019177  3.873827  -112.420295  54.037669  -94.341305  -38.925294  -6.993851  69.239714  77.301605  -1.887148  12.335804  -10.540206  -4.003058  16.161048  160.964497  26.451932  60.605902  -31.61606  -12.577967  -64.551241  91.2142  4.095788  -24.594507  -15.728425  -0.760478  3.472661  -11.792284  -0.660308  2.586913  
0.0  89.887642  0.0  9.631179  -50.073107  -111.766087  30.537212  -46.19696  -15.847628  17.941893  28.955921  68.090651  5.121356  8.374509  3.806883  -9.037497  17.905874  -15.013289  26.738846  5.946176  48.11409  -2.624523  0.818527  1.805918  2.932753  0.692168  2.301942  8.07539  1.608063  6.36654  8.07539  1.608063  6.36654  -20.718495  12.952409  3.861819  -111.642913  54.257994  -93.052591  -38.607178  -7.25396  68.493236  77.293724  -1.793566  13.308962  -10.309723  -3.789916  16.381446  160.378841  26.112616  60.528862  -32.691948  -11.843147  -65.039113  90.616792  3.748483  -24.151325  -16.1539  -0.670889  3.409937  -12.111999  -0.593849  2.541791  
0.0  89.887642  0.0  9.348217  -49.359261  -111.417556  29.959375  -46.082311  -16.075413  18.654889  28.752903  68.388067  4.891488  8.307842  3.622829  -9.639887  18.280518  -14.838968  26.533351  5.880716  47.381944  -2.597232  0.828  1.839089  2.913009  0.6019  2.273041  8.011956  1.36744  6.27605  8.011956  1.36744  6.276051  -20.897814  13.239775  4.035337  -110.957978  54.476166  -91.564626  -38.24639  -7.719454  67.650602  77.257449  -1.815562  14.117956  -10.071884  -3.308402  16.793979  159.359008  25.805395  60.077066  -33.968951  -10.969285  -66.025247  89.824758  3.480491  -24.171904  -16.536121  -0.387868  3.391483  -12.40035  -0.383052  2.535307  
